<svg viewBox="0 0 388 271" fill="none" xmlns="http://www.w3.org/2000/svg">
<path d="M363.084 116.618H138.128V268.627H363.084V116.618Z" fill="#373737"/>
<path d="M157.269 255.94H344.204V129.054H157.269V255.94Z" fill="#1B1B1B"/>
<path d="M210.37 215.03C221.207 215.03 229.991 206.232 229.991 195.378C229.991 184.524 221.207 175.725 210.37 175.725C199.533 175.725 190.749 184.524 190.749 195.378C190.749 206.232 199.533 215.03 210.37 215.03Z" fill="#4884E6"/>
<path d="M271.9 255.942H175.644C175.523 255.944 175.401 255.934 175.282 255.914L220.807 176.932C221.085 176.441 221.488 176.031 221.976 175.747C222.463 175.462 223.017 175.312 223.581 175.312C224.146 175.312 224.7 175.462 225.187 175.747C225.675 176.031 226.078 176.441 226.356 176.932L258.374 232.467L271.9 255.942Z" fill="#282828"/>
<path d="M271.9 255.94H239.035L256.911 229.931L258.374 232.467L271.9 255.94Z" fill="black"/>
<path d="M325.494 255.94H242.241L258.374 232.467L280.557 200.189C280.929 199.722 281.395 199.338 281.924 199.063C282.453 198.787 283.035 198.627 283.63 198.591C284.226 198.555 284.822 198.646 285.38 198.856C285.939 199.066 286.447 199.391 286.872 199.811C286.981 199.93 287.082 200.057 287.174 200.189L325.494 255.94Z" fill="#282828"/>
<path d="M0 117.388C0 82.5856 28.1678 1.14441e-05 62.915 1.14441e-05C97.6622 1.14441e-05 125.83 82.5856 125.83 117.388C125.782 134.07 119.133 150.052 107.339 161.83C95.5454 173.609 79.5701 180.223 62.9152 180.223C46.2604 180.223 30.2851 173.609 18.4915 161.83C6.69784 150.052 0.0477582 134.07 0 117.388Z" fill="#2D2D2D"/>
<path d="M62.915 270.699C62.7778 270.699 62.6462 270.644 62.5492 270.547C62.4521 270.45 62.3976 270.318 62.3976 270.181V52.9227C62.3976 52.7853 62.4521 52.6535 62.5492 52.5563C62.6462 52.4591 62.7778 52.4046 62.915 52.4046C63.0522 52.4046 63.1838 52.4591 63.2808 52.5563C63.3778 52.6535 63.4323 52.7853 63.4323 52.9227V270.181C63.4323 270.318 63.3778 270.45 63.2808 270.547C63.1838 270.644 63.0522 270.699 62.915 270.699Z" fill="#4A4A4A"/>
<path d="M62.915 94.8656C62.7778 94.8655 62.6462 94.8109 62.5492 94.7137L37.6474 69.7724C37.5531 69.6747 37.501 69.5438 37.5022 69.4079C37.5034 69.2721 37.5578 69.1421 37.6537 69.046C37.7496 68.95 37.8794 68.8955 38.015 68.8943C38.1506 68.8931 38.2813 68.9453 38.3789 69.0397L63.2807 93.9811C63.3531 94.0535 63.4023 94.1458 63.4223 94.2463C63.4422 94.3468 63.432 94.451 63.3928 94.5457C63.3537 94.6403 63.2874 94.7213 63.2023 94.7782C63.1173 94.8351 63.0173 94.8655 62.915 94.8656Z" fill="#4A4A4A"/>
<path d="M62.915 138.044C62.8127 138.044 62.7127 138.014 62.6276 137.957C62.5426 137.9 62.4763 137.819 62.4371 137.724C62.398 137.63 62.3877 137.525 62.4077 137.425C62.4276 137.324 62.4769 137.232 62.5492 137.16L104.251 95.3904C104.299 95.3414 104.355 95.3022 104.417 95.2749C104.48 95.2477 104.547 95.2331 104.615 95.2319C104.683 95.2307 104.75 95.2429 104.814 95.2678C104.877 95.2928 104.935 95.33 104.983 95.3773C105.032 95.4246 105.071 95.4811 105.099 95.5436C105.126 95.606 105.14 95.6732 105.141 95.7413C105.142 95.8094 105.13 95.8771 105.105 95.9404C105.08 96.0037 105.043 96.0615 104.996 96.1104L63.2807 137.893C63.1837 137.991 63.0522 138.045 62.915 138.045V138.044Z" fill="#4A4A4A"/>
<path d="M387.525 270.482H34.619C34.493 270.482 34.3722 270.427 34.2831 270.33C34.194 270.233 34.144 270.101 34.144 269.964C34.144 269.826 34.194 269.694 34.2831 269.597C34.3722 269.5 34.493 269.446 34.619 269.446H387.525C387.651 269.446 387.772 269.5 387.861 269.597C387.95 269.694 388 269.826 388 269.964C388 270.101 387.95 270.233 387.861 270.33C387.772 270.427 387.651 270.482 387.525 270.482Z" fill="#666666"/>
<path d="M80.6393 230.91C80.6393 221.994 87.8598 200.838 96.7667 200.838C105.674 200.838 112.895 221.993 112.895 230.91C112.895 235.194 111.195 239.303 108.171 242.332C105.146 245.361 101.044 247.063 96.7669 247.063C92.4896 247.063 88.3875 245.361 85.363 242.332C82.3385 239.303 80.6393 235.194 80.6393 230.91Z" fill="#282828"/>
<path d="M96.7667 270.18C96.7316 270.18 96.6979 270.166 96.673 270.141C96.6482 270.117 96.6342 270.083 96.6342 270.048V214.393C96.6342 214.376 96.6377 214.358 96.6443 214.342C96.651 214.326 96.6608 214.312 96.6731 214.299C96.6854 214.287 96.7 214.277 96.7161 214.27C96.7322 214.264 96.7495 214.26 96.7669 214.26C96.7844 214.26 96.8016 214.264 96.8177 214.27C96.8338 214.277 96.8484 214.287 96.8608 214.299C96.8731 214.312 96.8829 214.326 96.8895 214.342C96.8962 214.358 96.8996 214.376 96.8996 214.393V270.048C96.8996 270.083 96.8857 270.117 96.8608 270.141C96.836 270.166 96.8018 270.18 96.7667 270.18Z" fill="#666666"/>
<path d="M96.7667 225.137C96.7493 225.137 96.7321 225.134 96.716 225.127C96.6999 225.121 96.6853 225.111 96.673 225.098L90.2897 218.709C90.265 218.684 90.2513 218.651 90.2514 218.616C90.2516 218.581 90.2656 218.547 90.2904 218.522C90.3152 218.497 90.3488 218.483 90.3839 218.483C90.4189 218.483 90.4526 218.497 90.4775 218.522L96.8608 224.911C96.8793 224.929 96.892 224.953 96.8971 224.979C96.9022 225.005 96.8996 225.031 96.8895 225.055C96.8795 225.08 96.8625 225.1 96.8408 225.115C96.819 225.13 96.7929 225.137 96.7667 225.137Z" fill="#666666"/>
<path d="M96.7667 236.199C96.7405 236.199 96.7149 236.191 96.6931 236.177C96.6713 236.162 96.6544 236.141 96.6443 236.117C96.6343 236.093 96.6317 236.066 96.6368 236.041C96.6419 236.015 96.6545 235.991 96.673 235.973L107.363 225.273C107.388 225.248 107.422 225.234 107.457 225.233C107.492 225.233 107.526 225.247 107.551 225.272C107.576 225.297 107.59 225.331 107.59 225.366C107.59 225.401 107.576 225.435 107.551 225.46L96.8603 236.16C96.848 236.173 96.8335 236.182 96.8174 236.189C96.8013 236.196 96.7841 236.199 96.7667 236.199Z" fill="#666666"/>
</svg>
