<svg viewBox="0 0 256 345" fill="none" xmlns="http://www.w3.org/2000/svg">
<g clip-path="url(#clip0_1248_302)">
<path d="M127.67 344.793C198.181 344.793 255.34 334.712 255.34 322.275C255.34 309.839 198.181 299.757 127.67 299.757C57.1599 299.757 0 309.839 0 322.275C0 334.712 57.1599 344.793 127.67 344.793Z" fill="#2D2D2D"/>
<path d="M61.6626 298.739C61.6626 291.63 67.4386 274.76 74.5637 274.76C81.6888 274.76 87.4652 291.628 87.4652 298.739C87.4652 302.155 86.106 305.431 83.6865 307.846C81.267 310.262 77.9855 311.619 74.5639 311.619C71.1423 311.619 67.8608 310.262 65.4413 307.846C63.0218 305.431 61.6626 302.155 61.6626 298.739Z" fill="#5187EF"/>
<path d="M74.5635 330.052C74.5354 330.052 74.5084 330.041 74.4886 330.021C74.4687 330.001 74.4575 329.974 74.4575 329.946V285.569C74.4575 285.555 74.4603 285.541 74.4656 285.528C74.4709 285.515 74.4788 285.504 74.4886 285.494C74.4985 285.484 74.5102 285.476 74.523 285.471C74.5359 285.465 74.5497 285.463 74.5637 285.463C74.5776 285.463 74.5914 285.465 74.6043 285.471C74.6172 285.476 74.6289 285.484 74.6387 285.494C74.6486 285.504 74.6564 285.515 74.6617 285.528C74.6671 285.541 74.6698 285.555 74.6698 285.569V329.946C74.6698 329.974 74.6587 330.001 74.6388 330.021C74.6189 330.041 74.5916 330.052 74.5635 330.052Z" fill="#E6E6E6"/>
<path d="M74.5634 294.136C74.5495 294.136 74.5357 294.133 74.5229 294.128C74.51 294.122 74.4984 294.115 74.4885 294.105L69.3821 289.01C69.3624 288.99 69.3515 288.964 69.3516 288.936C69.3517 288.908 69.3629 288.881 69.3827 288.861C69.4026 288.841 69.4295 288.83 69.4575 288.83C69.4855 288.83 69.5125 288.841 69.5324 288.861L74.6388 293.955C74.6536 293.97 74.6637 293.989 74.6678 294.009C74.6718 294.03 74.6697 294.051 74.6617 294.071C74.6537 294.09 74.6401 294.106 74.6227 294.118C74.6053 294.13 74.5844 294.136 74.5634 294.136Z" fill="#E6E6E6"/>
<path d="M74.5635 302.956C74.5425 302.956 74.522 302.95 74.5046 302.938C74.4872 302.927 74.4736 302.91 74.4656 302.891C74.4576 302.872 74.4555 302.85 74.4596 302.83C74.4636 302.809 74.4737 302.79 74.4885 302.776L83.0402 294.244C83.06 294.224 83.087 294.213 83.1151 294.213C83.1433 294.212 83.1703 294.224 83.1902 294.243C83.2101 294.263 83.2213 294.29 83.2214 294.318C83.2214 294.346 83.2103 294.373 83.1904 294.393L74.6384 302.925C74.6285 302.935 74.6169 302.943 74.604 302.948C74.5912 302.954 74.5774 302.956 74.5635 302.956Z" fill="#E6E6E6"/>
<path d="M127.773 249.144C196.684 249.144 252.547 193.371 252.547 124.572C252.547 55.7727 196.684 0 127.773 0C58.8629 0 3 55.7727 3 124.572C3 193.371 58.8629 249.144 127.773 249.144Z" fill="#232323"/>
<path opacity="0.05" d="M127.773 227.41C184.661 227.41 230.778 181.368 230.778 124.572C230.778 67.776 184.661 21.7338 127.773 21.7338C70.8857 21.7338 24.769 67.776 24.769 124.572C24.769 181.368 70.8857 227.41 127.773 227.41Z" fill="black"/>
<path opacity="0.05" d="M127.773 208.857C174.398 208.857 212.194 171.121 212.194 124.572C212.194 78.0226 174.398 40.2871 127.773 40.2871C81.1487 40.2871 43.3521 78.0226 43.3521 124.572C43.3521 171.121 81.1487 208.857 127.773 208.857Z" fill="black"/>
<path opacity="0.05" d="M127.773 185.002C161.202 185.002 188.301 157.947 188.301 124.572C188.301 91.197 161.202 64.1413 127.773 64.1413C94.3441 64.1413 67.2446 91.197 67.2446 124.572C67.2446 157.947 94.3441 185.002 127.773 185.002Z" fill="black"/>
<path d="M116.034 135.11C117.226 135.11 118.192 134.144 118.192 132.952C118.192 131.76 117.226 130.795 116.034 130.795C114.842 130.795 113.876 131.76 113.876 132.952C113.876 134.144 114.842 135.11 116.034 135.11Z" fill="#E6E6E6"/>
<path d="M117.329 99.726C117.805 99.726 118.192 99.3396 118.192 98.863C118.192 98.3864 117.805 98 117.329 98C116.852 98 116.466 98.3864 116.466 98.863C116.466 99.3396 116.852 99.726 117.329 99.726Z" fill="#E6E6E6"/>
<path d="M96.6164 114.397C97.0931 114.397 97.4794 114.011 97.4794 113.534C97.4794 113.058 97.0931 112.671 96.6164 112.671C96.1398 112.671 95.7534 113.058 95.7534 113.534C95.7534 114.011 96.1398 114.397 96.6164 114.397Z" fill="#E6E6E6"/>
<path d="M125.096 156.685C125.573 156.685 125.959 156.299 125.959 155.822C125.959 155.345 125.573 154.959 125.096 154.959C124.619 154.959 124.233 155.345 124.233 155.822C124.233 156.299 124.619 156.685 125.096 156.685Z" fill="#E6E6E6"/>
<path d="M157.89 110.082C158.367 110.082 158.753 109.696 158.753 109.219C158.753 108.743 158.367 108.356 157.89 108.356C157.414 108.356 157.027 108.743 157.027 109.219C157.027 109.696 157.414 110.082 157.89 110.082Z" fill="#E6E6E6"/>
<path d="M140.63 129.068C141.107 129.068 141.493 128.682 141.493 128.205C141.493 127.729 141.107 127.342 140.63 127.342C140.153 127.342 139.767 127.729 139.767 128.205C139.767 128.682 140.153 129.068 140.63 129.068Z" fill="#E6E6E6"/>
<path d="M145.377 150.644C145.615 150.644 145.808 150.451 145.808 150.212C145.808 149.974 145.615 149.781 145.377 149.781C145.139 149.781 144.945 149.974 144.945 150.212C144.945 150.451 145.139 150.644 145.377 150.644Z" fill="#E6E6E6"/>
<path d="M140.641 101.785C142.789 101.785 144.529 100.042 144.529 97.8924C144.529 95.7427 142.789 94 140.641 94C138.494 94 136.753 95.7427 136.753 97.8924C136.753 100.042 138.494 101.785 140.641 101.785Z" fill="#F1F1F1"/>
<path d="M231.338 325.374C241.166 325.374 249.133 317.42 249.133 307.608C249.133 297.796 241.166 289.841 231.338 289.841C221.51 289.841 213.542 297.796 213.542 307.608C213.542 317.42 221.51 325.374 231.338 325.374Z" fill="#545454"/>
<path d="M22.3474 319.177C32.1755 319.177 40.1426 311.222 40.1426 301.41C40.1426 291.598 32.1755 283.644 22.3474 283.644C12.5194 283.644 4.55225 291.598 4.55225 301.41C4.55225 311.222 12.5194 319.177 22.3474 319.177Z" fill="#545454"/>
<path d="M22.3477 290.668C29.433 290.668 35.1767 284.933 35.1767 277.859C35.1767 270.785 29.433 265.051 22.3477 265.051C15.2623 265.051 9.51855 270.785 9.51855 277.859C9.51855 284.933 15.2623 290.668 22.3477 290.668Z" fill="#545454"/>
<path d="M22.3477 267.117C27.376 267.117 31.4522 263.047 31.4522 258.027C31.4522 253.007 27.376 248.937 22.3477 248.937C17.3194 248.937 13.2432 253.007 13.2432 258.027C13.2432 263.047 17.3194 267.117 22.3477 267.117Z" fill="#545454"/>
</g>
<defs>
<clipPath id="clip0_1248_302">
<rect width="256" height="345" fill="white"/>
</clipPath>
</defs>
</svg>
