<svg viewBox="0 0 562 301" fill="none" xmlns="http://www.w3.org/2000/svg">
<g clip-path="url(#clip0_1314_2)">
<path d="M540.455 300.53H20.8669C15.3773 300.523 10.1143 298.34 6.23254 294.458C2.35079 290.576 0.1673 285.313 0.161133 279.824V21.2352C0.167387 15.7456 2.35092 10.4827 6.23267 6.60095C10.1144 2.71925 15.3774 0.535793 20.8669 0.529602H540.455C545.945 0.53579 551.208 2.71922 555.09 6.60092C558.971 10.4826 561.155 15.7456 561.161 21.2352V279.824C561.155 285.313 558.972 290.576 555.09 294.458C551.208 298.34 545.945 300.523 540.455 300.53Z" fill="#2D2D2D"/>
<path opacity="0.5" d="M60.7671 255.257H476.247V184.045C476.184 176.536 474.622 169.115 471.652 162.218C468.682 155.321 464.365 149.087 458.953 143.881L458.84 143.771C451.419 136.325 426.619 117.428 400.96 119.03C387.405 119.874 375.801 126.406 366.469 138.446C337.422 175.936 299.267 163.281 279.108 152.401C261.342 142.811 243.198 138.309 225.178 139.026C199.94 140.013 164.417 149.31 138.51 188C128.615 202.766 107.097 222.808 60.7671 234.587L60.7671 255.257Z" fill="#1B1B1B"/>
<path d="M499.755 256.913H61.5667C61.203 256.913 60.8542 256.768 60.597 256.511C60.3398 256.254 60.1953 255.905 60.1953 255.541V45.5176C60.1953 45.1539 60.3398 44.8051 60.597 44.5479C60.8541 44.2907 61.203 44.1462 61.5667 44.1462C61.9303 44.1462 62.2791 44.2907 62.5363 44.5479C62.7935 44.8051 62.938 45.1539 62.938 45.5176V254.17H499.755C500.119 254.17 500.468 254.314 500.725 254.572C500.982 254.829 501.126 255.178 501.126 255.541C501.126 255.905 500.982 256.254 500.725 256.511C500.468 256.768 500.119 256.913 499.755 256.913Z" fill="#666666"/>
<path d="M224.262 149.411C228.806 149.411 232.49 145.727 232.49 141.183C232.49 136.639 228.806 132.955 224.262 132.955C219.718 132.955 216.034 136.639 216.034 141.183C216.034 145.727 219.718 149.411 224.262 149.411Z" fill="#4884E6"/>
<path d="M385.639 127.894C390.183 127.894 393.867 124.21 393.867 119.666C393.867 115.122 390.183 111.438 385.639 111.438C381.094 111.438 377.411 115.122 377.411 119.666C377.411 124.21 381.094 127.894 385.639 127.894Z" fill="#4884E6"/>
<path d="M304.95 172.273C309.494 172.273 313.178 168.589 313.178 164.045C313.178 159.5 309.494 155.817 304.95 155.817C300.406 155.817 296.722 159.5 296.722 164.045C296.722 168.589 300.406 172.273 304.95 172.273Z" fill="#4884E6"/>
<path d="M143.573 184.376C148.117 184.376 151.801 180.692 151.801 176.148C151.801 171.604 148.117 167.92 143.573 167.92C139.029 167.92 135.345 171.604 135.345 176.148C135.345 180.692 139.029 184.376 143.573 184.376Z" fill="#4884E6"/>
<path d="M466.327 157.48C470.871 157.48 474.555 153.796 474.555 149.252C474.555 144.708 470.871 141.024 466.327 141.024C461.783 141.024 458.099 144.708 458.099 149.252C458.099 153.796 461.783 157.48 466.327 157.48Z" fill="#4884E6"/>
</g>
<defs>
<clipPath id="clip0_1314_2">
<rect width="562" height="301" fill="white"/>
</clipPath>
</defs>
</svg>
