<svg viewBox="0 0 382 297" fill="none" xmlns="http://www.w3.org/2000/svg">
<g clip-path="url(#clip0_1248_247)">
<path d="M217.513 145.224C226.108 145.224 233.077 138.248 233.077 129.643C233.077 121.037 226.108 114.061 217.513 114.061C208.917 114.061 201.949 121.037 201.949 129.643C201.949 138.248 208.917 145.224 217.513 145.224Z" fill="#F1F1F1"/>
<path d="M255.657 149.666L239.392 133.383C240.639 131.441 241.484 129.269 241.877 126.995C242.27 124.721 242.203 122.391 241.679 120.143C241.156 117.895 240.188 115.775 238.832 113.909C237.475 112.043 235.759 110.468 233.783 109.278C230.064 107.054 225.645 106.309 221.403 107.191C217.161 108.073 213.404 110.518 210.877 114.042C208.552 117.306 207.435 121.279 207.719 125.278C208.003 129.276 209.669 133.052 212.432 135.954C215.194 138.856 218.88 140.704 222.856 141.18C226.833 141.656 230.85 140.731 234.219 138.562L250.483 154.845C251.169 155.532 252.1 155.917 253.07 155.917C254.04 155.916 254.97 155.531 255.656 154.844C256.341 154.157 256.727 153.226 256.727 152.255C256.727 151.284 256.342 150.353 255.657 149.666ZM233.611 132.775C231.596 134.793 228.944 136.048 226.108 136.328C223.271 136.608 220.426 135.894 218.056 134.309C215.686 132.724 213.939 130.365 213.112 127.634C212.284 124.904 212.428 121.971 213.519 119.335C214.609 116.699 216.579 114.523 219.093 113.178C221.606 111.833 224.508 111.402 227.303 111.958C230.099 112.515 232.615 114.025 234.423 116.23C236.231 118.436 237.219 121.201 237.219 124.054C237.221 125.674 236.904 127.278 236.285 128.775C235.665 130.272 234.757 131.631 233.611 132.775Z" fill="#545454"/>
<path d="M373.557 173.684C415.152 219.735 294.576 286.101 197.147 286.101C99.7182 286.101 32.3128 234.679 20.7366 173.684C-7.33156 25.791 259.884 -68.2089 197.147 61.2664C105.7 249.991 340.8 137.418 373.557 173.684Z" fill="#1E1E1E"/>
<path d="M354.894 184.583C396.489 230.634 275.913 297 178.484 297C81.0554 297 13.6499 245.578 2.07378 184.583C-25.9944 36.6898 241.221 -57.31 178.484 72.1652C87.0371 260.89 322.137 148.316 354.894 184.583Z" fill="#2D2D2D"/>
<path d="M58.1636 76.6134C28.9767 75.3269 6.34646 69.0239 6.64376 62.2641C6.82201 58.2114 15.0822 54.9524 29.3062 53.3233C29.3571 53.3171 29.4087 53.3211 29.4581 53.335C29.5075 53.3489 29.5536 53.3724 29.5938 53.4042C29.6341 53.436 29.6677 53.4755 29.6926 53.5203C29.7176 53.5651 29.7334 53.6145 29.7392 53.6655C29.7451 53.7165 29.7408 53.7682 29.7266 53.8175C29.7124 53.8668 29.6886 53.9128 29.6565 53.9529C29.6245 53.993 29.5849 54.0264 29.5399 54.051C29.4949 54.0757 29.4455 54.0912 29.3946 54.0967C15.9955 55.6315 7.57563 58.7742 7.42062 62.2983C7.15177 68.4113 30.4048 74.6106 58.1978 75.8357C85.9907 77.0608 109.698 72.9315 109.967 66.8186C110.123 63.2796 101.959 59.3974 88.661 56.6871C88.6108 56.6771 88.5632 56.6572 88.5207 56.6286C88.4782 56.6001 88.4418 56.5634 88.4135 56.5207C88.3852 56.4781 88.3656 56.4302 88.3558 56.3799C88.346 56.3297 88.3463 56.278 88.3565 56.2278C88.3667 56.1776 88.3867 56.1299 88.4153 56.0875C88.444 56.0451 88.4807 56.0087 88.5234 55.9805C88.5661 55.9523 88.6139 55.9328 88.6642 55.9232C88.7144 55.9135 88.7661 55.9139 88.8162 55.9242C102.93 58.801 110.923 62.7843 110.744 66.8528C110.446 73.6127 87.3505 77.9 58.1636 76.6134Z" fill="#545454"/>
<path d="M32.2412 77.7455C34.6829 82.3891 38.2998 86.3093 42.7301 89.1139C47.1604 91.9185 52.2487 93.5092 57.4859 93.7268C62.7232 93.9445 67.9257 92.7814 72.5729 90.3539C77.2201 87.9265 81.1491 84.3199 83.9667 79.8949C66.6986 80.1278 49.4307 79.4103 32.2412 77.7455Z" fill="#5187EF"/>
<path d="M87.1954 71.7071C88.6649 67.2945 89.0883 62.6001 88.4321 57.9954C87.776 53.3907 86.0583 49.0021 83.415 45.1769C80.7718 41.3517 77.2754 38.1949 73.2028 35.9564C69.1301 33.7178 64.5929 32.459 59.9503 32.2795C55.3076 32.1 50.687 33.0048 46.454 34.9222C42.221 36.8397 38.4919 39.7171 35.5619 43.3269C32.6318 46.9366 30.5811 51.1795 29.5723 55.7199C28.5634 60.2602 28.6239 64.9733 29.7491 69.4862C48.7213 72.7105 68.0313 73.457 87.1954 71.7071Z" fill="#5187EF"/>
<path d="M65.6441 51.6143C67.5767 51.6143 69.1433 50.0458 69.1433 48.1111C69.1433 46.1763 67.5767 44.6078 65.6441 44.6078C63.7115 44.6078 62.1448 46.1763 62.1448 48.1111C62.1448 50.0458 63.7115 51.6143 65.6441 51.6143Z" fill="white"/>
<path d="M47.6344 65.2342C50.8554 65.2342 53.4665 62.6201 53.4665 59.3955C53.4665 56.1709 50.8554 53.5568 47.6344 53.5568C44.4134 53.5568 41.8022 56.1709 41.8022 59.3955C41.8022 62.6201 44.4134 65.2342 47.6344 65.2342Z" fill="white"/>
<path d="M135.657 59.5148C137.805 59.5148 139.545 57.7722 139.545 55.6225C139.545 53.4728 137.805 51.7301 135.657 51.7301C133.51 51.7301 131.769 53.4728 131.769 55.6225C131.769 57.7722 133.51 59.5148 135.657 59.5148Z" fill="#F1F1F1"/>
<path d="M47.7865 178.624C49.0749 178.624 50.1194 177.579 50.1194 176.289C50.1194 174.999 49.0749 173.953 47.7865 173.953C46.4981 173.953 45.4536 174.999 45.4536 176.289C45.4536 177.579 46.4981 178.624 47.7865 178.624Z" fill="#E6E6E6"/>
<path d="M211.086 258.809C212.375 258.809 213.419 257.763 213.419 256.473C213.419 255.183 212.375 254.138 211.086 254.138C209.798 254.138 208.753 255.183 208.753 256.473C208.753 257.763 209.798 258.809 211.086 258.809Z" fill="#E6E6E6"/>
<path d="M59.062 133.472C59.7062 133.472 60.2284 132.949 60.2284 132.304C60.2284 131.659 59.7062 131.136 59.062 131.136C58.4177 131.136 57.8955 131.659 57.8955 132.304C57.8955 132.949 58.4177 133.472 59.062 133.472Z" fill="#E6E6E6"/>
<path d="M155.487 220.663C156.131 220.663 156.653 220.14 156.653 219.495C156.653 218.85 156.131 218.327 155.487 218.327C154.842 218.327 154.32 218.85 154.32 219.495C154.32 220.14 154.842 220.663 155.487 220.663Z" fill="#E6E6E6"/>
<path d="M330.84 209.375C331.484 209.375 332.006 208.852 332.006 208.207C332.006 207.562 331.484 207.039 330.84 207.039C330.195 207.039 329.673 207.562 329.673 208.207C329.673 208.852 330.195 209.375 330.84 209.375Z" fill="#E6E6E6"/>
<path d="M276.018 244.017C276.662 244.017 277.184 243.495 277.184 242.85C277.184 242.205 276.662 241.682 276.018 241.682C275.373 241.682 274.851 242.205 274.851 242.85C274.851 243.495 275.373 244.017 276.018 244.017Z" fill="#E6E6E6"/>
<path d="M218.862 201.979C219.507 201.979 220.029 201.456 220.029 200.811C220.029 200.166 219.507 199.643 218.862 199.643C218.218 199.643 217.696 200.166 217.696 200.811C217.696 201.456 218.218 201.979 218.862 201.979Z" fill="#E6E6E6"/>
<path d="M144.989 86.7622C145.633 86.7622 146.155 86.2393 146.155 85.5944C146.155 84.9495 145.633 84.4266 144.989 84.4266C144.345 84.4266 143.822 84.9495 143.822 85.5944C143.822 86.2393 144.345 86.7622 144.989 86.7622Z" fill="#E6E6E6"/>
<path d="M154.32 29.1538C154.964 29.1538 155.487 28.631 155.487 27.986C155.487 27.3411 154.964 26.8183 154.32 26.8183C153.676 26.8183 153.154 27.3411 153.154 27.986C153.154 28.631 153.676 29.1538 154.32 29.1538Z" fill="#E6E6E6"/>
<path d="M148.877 271.654C149.521 271.654 150.043 271.131 150.043 270.486C150.043 269.841 149.521 269.318 148.877 269.318C148.233 269.318 147.71 269.841 147.71 270.486C147.71 271.131 148.233 271.654 148.877 271.654Z" fill="#E6E6E6"/>
<path d="M91.3332 247.131C91.9774 247.131 92.4997 246.609 92.4997 245.964C92.4997 245.319 91.9774 244.796 91.3332 244.796C90.689 244.796 90.1667 245.319 90.1667 245.964C90.1667 246.609 90.689 247.131 91.3332 247.131Z" fill="#E6E6E6"/>
<path d="M109.644 202.019C110.288 202.019 110.811 201.496 110.811 200.851C110.811 200.206 110.288 199.683 109.644 199.683C109 199.683 108.478 200.206 108.478 200.851C108.478 201.496 109 202.019 109.644 202.019Z" fill="#E6E6E6"/>
<path d="M273.685 205.093C274.329 205.093 274.851 204.57 274.851 203.925C274.851 203.28 274.329 202.757 273.685 202.757C273.04 202.757 272.518 203.28 272.518 203.925C272.518 204.57 273.04 205.093 273.685 205.093Z" fill="#E6E6E6"/>
<path d="M111.977 143.242C112.621 143.242 113.143 142.72 113.143 142.075C113.143 141.43 112.621 140.907 111.977 140.907C111.333 140.907 110.811 141.43 110.811 142.075C110.811 142.72 111.333 143.242 111.977 143.242Z" fill="#E6E6E6"/>
<path d="M57.689 91.0051C59.6216 91.0051 61.1883 89.4367 61.1883 87.5019C61.1883 85.5672 59.6216 83.9987 57.689 83.9987C55.7564 83.9987 54.1897 85.5672 54.1897 87.5019C54.1897 89.4367 55.7564 91.0051 57.689 91.0051Z" fill="white"/>
<path d="M183.922 172.781C186.124 171.368 183.446 163.254 177.942 154.657C172.437 146.061 166.19 140.237 163.988 141.65C161.786 143.063 164.464 151.178 169.968 159.774C175.473 168.371 181.72 174.194 183.922 172.781Z" fill="#545454"/>
</g>
<defs>
<clipPath id="clip0_1248_247">
<rect width="382" height="297" fill="white"/>
</clipPath>
</defs>
</svg>
